inDegrees=no
num_controls=7
num_derivatives=13
num_iterations=126
num_multipliers=7
num_parameters=0
num_slacks=7
num_states=26
objective=5.170933
objective_accelerations=0.503532
objective_balance=0.032938
objective_effort=0.208865
objective_height=4.401794
objective_ligament=0.023803
solver_duration=1406.764515
status=Solve_Succeeded
success=true
DataType=double
version=3
OpenSimVersion=4.4-2022-07-23-0e9fedc
endheader
time	/jointset/ground_pelvis/pelvis_tilt/value	/jointset/ground_pelvis/pelvis_tx/value	/jointset/ground_pelvis/pelvis_ty/value	/jointset/hip_l/hip_flexion_l/value	/jointset/hip_l/hip_adduction_l/value	/jointset/hip_l/hip_rotation_l/value	/jointset/back/lumbar_extension/value	/jointset/patellofemoral_l/patellar_flexion_l/value	/jointset/knee_l/knee_flexion_l/value	/jointset/knee_l/knee_adduction_l/value	/jointset/knee_l/knee_rotation_l/value	/jointset/ankle_l/ankle_angle_l/value	/jointset/subtalar_l/subtalar_angle_l/value	/jointset/ground_pelvis/pelvis_tilt/speed	/jointset/ground_pelvis/pelvis_tx/speed	/jointset/ground_pelvis/pelvis_ty/speed	/jointset/hip_l/hip_flexion_l/speed	/jointset/hip_l/hip_adduction_l/speed	/jointset/hip_l/hip_rotation_l/speed	/jointset/back/lumbar_extension/speed	/jointset/patellofemoral_l/patellar_flexion_l/speed	/jointset/knee_l/knee_flexion_l/speed	/jointset/knee_l/knee_adduction_l/speed	/jointset/knee_l/knee_rotation_l/speed	/jointset/ankle_l/ankle_angle_l/speed	/jointset/subtalar_l/subtalar_angle_l/speed	/forceset/tau_hip_flexion_l	/forceset/tau_hip_adduction_l	/forceset/tau_hip_rotation_l	/forceset/tau_knee_flexion_l	/forceset/tau_ankle_angle_l	/forceset/tau_subtalar_angle_l	/forceset/tau_lumbar_extension	lambda_cid13_p0	lambda_cid13_p1	lambda_cid13_p2	lambda_cid13_p3	lambda_cid13_p4	lambda_cid13_p5	lambda_cid14_p0	/jointset/ground_pelvis/pelvis_tilt/accel	/jointset/ground_pelvis/pelvis_tx/accel	/jointset/ground_pelvis/pelvis_ty/accel	/jointset/hip_l/hip_flexion_l/accel	/jointset/hip_l/hip_adduction_l/accel	/jointset/hip_l/hip_rotation_l/accel	/jointset/back/lumbar_extension/accel	/jointset/patellofemoral_l/patellar_flexion_l/accel	/jointset/knee_l/knee_flexion_l/accel	/jointset/knee_l/knee_adduction_l/accel	/jointset/knee_l/knee_rotation_l/accel	/jointset/ankle_l/ankle_angle_l/accel	/jointset/subtalar_l/subtalar_angle_l/accel	gamma_cid13_p0	gamma_cid13_p1	gamma_cid13_p2	gamma_cid13_p3	gamma_cid13_p4	gamma_cid13_p5	gamma_cid14_p0
1	-0.291427550373085	0.04004509479767165	0.6600210087086482	1.269775309040985	-0.5000148827523223	-0.01766593976935758	-0.2617952064668709	1.309308148661522	1.309308148661895	-0.1307681404063817	-0.17452786858412	0.4362729014247497	0.09081595339316081	-0.01672195782580374	0.009191849314163005	-0.0003604898764336736	0.002587882033337095	-0.003209745662668927	0.002833026569373526	-2.53317811849928e-05	0.001501223701616636	0.001501223701617684	-0.005793449136777561	-0.0001015433453056883	0.01487491976660188	0.006698847952091576	-0.1846852363481668	0.0610974282746618	-0.006110776482892793	-0.3372829282835194	-0.08082328013535796	0.02426706575747048	0.1871621489731402	-63.60165644580911	-0.66004191387025	1.205158562531219	13.33650144378387	-616.5744184002785	-64.22795082020325	-3.62643008722978	0.8841622776252605	0.01746629090228363	1.471197542528149	-4.623296618277623	0.2632135240848931	-2.259185991307421	-0.01157062283139938	-4.919713572148795	-4.919713572148692	-0.3102851178902312	-0.02006980125524556	-1.802171417982838	-0.9844672017014551	3.04002073274919e-09	1.740249668530773e-08	-1.19571093718628e-08	4.531150035076652e-09	-1.177525496322011e-09	2.695571032989002e-08	1.743536176236381e-09
1.01	-0.2915512770865068	0.04013786606906879	0.6600908295442265	1.269571162810201	-0.5000331806984679	-0.01775198411890164	-0.2617952886116151	1.309077520225865	1.30907752022661	-0.1308389115419582	-0.1745290617206632	0.436331790869585	0.09083501853336318	-0.008024654788539295	0.009363669242196804	0.01432269820111443	-0.04341270715255536	-0.0004448526989236729	-0.02003602839983306	5.69936529447822e-06	-0.04762697738049842	-0.047626977380497	-0.008358568546465226	-0.0001280998711498384	-0.003098144630490016	-0.002877916096639582	-0.1846127291654518	0.06113026844830432	-0.006131256063754587	-0.3371510932639685	-0.08082751526510906	0.02427797587923762	0.1870996572835674	-63.59159000080117	-0.6717908538214565	1.213026565571522	13.2592954357937	-616.4490994035376	-64.22207281844234	-3.634228473013821	0.8623234998081322	0.01723074522451025	1.466583396714462	-4.587777486268104	0.2838719000244377	-2.299889197361704	0.009959461970148908	-4.909382143354944	-4.909382143355084	-0.2292952488645335	0.00740681942264781	-1.7950404454247	-0.9431008651540869	-2.472656727874094e-09	9.685110920701595e-09	3.247398590467099e-08	6.285258690995296e-09	-1.102648205907972e-08	3.022496021781232e-08	-5.999213564530014e-09
1.02	-0.2915880689329385	0.04023239372003985	0.6603074230518484	1.268907143204077	-0.500023680771475	-0.01806654380766073	-0.2617951565492357	1.308355608025953	1.308355608027109	-0.130935267850836	-0.1745302493425674	0.4362109163719939	0.09075855206133841	0.0006650155699547995	0.009543125228944566	0.02899404453249793	-0.08938679303939961	0.002349828965023085	-0.04287004127439827	1.750965506691667e-05	-0.09675552914709203	-0.09675552914709158	-0.01091048381040021	-0.0001004404901209886	-0.02107786882166789	-0.01240747449316552	-0.1845402219825732	0.06116310862196582	-0.006151735645458833	-0.337019258244393	-0.08083175039486135	0.02428888600105448	0.1870371655941576	-63.59039015322259	-0.6829448817450101	1.22189290489149	13.21533773764263	-616.453805857625	-64.2042608943308	-3.657553334302112	0.882635741871391	0.01899350264483892	1.468829193295287	-4.617995958467863	0.2691712641258399	-2.252177572378409	-0.01541479417359491	-4.919783709044734	-4.9197837090449	-0.3076442887393783	-0.009226619879115397	-1.803503376800309	-0.9750260712595595	-9.147703245332389e-09	-3.15796471336763e-09	7.800672313225633e-08	6.86419153609745e-09	-2.117462162128071e-08	2.938648121996375e-08	-1.446764002657956e-08
1.03	-0.2915380673967999	0.040328722470128	0.6606706125654234	1.267783714005065	-0.4999861010878507	-0.01860923885530908	-0.2617949941950637	1.307142424629862	1.307142424630821	-0.1310571420963227	-0.1745310170150318	0.4359100858900482	0.09058693348209088	0.009326986526535125	0.0097206742691462	0.0436360716047773	-0.1352741479009815	0.005170140807180662	-0.06566330209407929	1.308764868190632e-05	-0.1458796543528245	-0.1458796543528288	-0.01346457496119938	-5.667630568543456e-05	-0.03910175825610783	-0.02191640212743038	-0.1843236191712436	0.06121844820927858	-0.006206278591705975	-0.3365783495229943	-0.08089517169887873	0.02433254200581151	0.1868508939039465	-63.58928911621481	-0.7183617430812768	1.246117334492548	13.20360079260382	-616.1670271577844	-64.20042703171002	-3.696558867835456	0.8567309047897985	0.01684451569076548	1.460715151193995	-4.570372116546702	0.2890496517210168	-2.292066954288312	0.006763063720318606	-4.908497929837879	-4.908497929838455	-0.2293305842916829	0.01066582147525604	-1.803862021253003	-0.9388623537956418	-1.583461067153391e-08	-1.605334330528855e-08	1.235507016042402e-07	7.431132791293307e-09	-3.132581407123112e-08	2.850608662123994e-08	-2.294347135313199e-08
1.04	-0.291401695524649	0.04042676849281471	0.6611799874871198	1.266202157884159	-0.4999202005843061	-0.01937969983470354	-0.2617949322674449	1.305438045781028	1.305438045781784	-0.1312045650645102	-0.1745314494680957	0.4354286104548334	0.09032021837764338	0.0179390827726749	0.00988657974865665	0.05823112615699482	-0.181012177424298	0.008013992947784361	-0.08842322761476874	-2.575654052398472e-06	-0.1949946196985726	-0.1949946196985807	-0.01602022835365624	-3.339676644115733e-05	-0.05720685947003585	-0.0314267795331275	-0.1841070163596848	0.0612737877964639	-0.006260821538923764	-0.3361374408015845	-0.08095859300296586	0.02437619801031723	0.1866646222139979	-63.59708877990123	-0.753177008678154	1.271338210006329	13.22517510200175	-616.0102783046898	-64.18511282019733	-3.751470499577591	0.8726607997834768	0.01666479050633568	1.459434689283032	-4.588130890814688	0.2738793238162079	-2.245510512578721	-0.01766305344449154	-4.917951737048258	-4.917951737048221	-0.3079567370703812	-0.01332354891453582	-1.819745732698137	-0.9753160255442829	-1.913002759612147e-08	-1.41769125557058e-08	1.620787775130093e-07	1.13390261544422e-08	-3.970278126023005e-08	3.964684160622052e-08	-2.905749373434105e-08
1.05	-0.2911794067398437	0.04052643788746634	0.6618350225333871	1.264164050644849	-0.4998255252141672	-0.02037714362424134	-0.2617950621429106	1.3032426725397	1.303242672539403	-0.1313775080867711	-0.1745311749707026	0.4347657878839223	0.08995887922992397	0.0265139499823357	0.01004751018248103	0.07276247821168823	-0.2265749141070174	0.01094769638009887	-0.1110216265117693	-2.219674323147147e-05	-0.2440675933751872	-0.2440675933752018	-0.0185562883868902	0.0001418770853289353	-0.07536006142553112	-0.0407912338747846	-0.1837856650797059	0.06132998982977784	-0.006343219681376133	-0.3354101807253656	-0.08095826713070693	0.02446383621805598	0.1864050140050058	-63.56214771816118	-0.8283651199470131	1.318745112611128	13.1794879623773	-615.5631473334446	-64.19360978786185	-3.822628866829003	0.8491893541074796	0.01584193078516525	1.447965041881605	-4.535194258462234	0.3070804889054773	-2.260444053196666	0.006068764043249547	-4.900097822539554	-4.900097822540386	-0.2246274883993103	0.04103154410794279	-1.813468400241426	-0.9095598002007796	-2.231946044253361e-08	-1.183886276420114e-08	2.003876064666779e-07	1.53513242709646e-08	-4.802430390982426e-08	5.116325751569179e-08	-3.509770958600814e-08
1.06	-0.2908715113484597	0.04062772353864909	0.6626349670158636	1.26167134619841	-0.4997007198825124	-0.02159925929765572	-0.2617953521490501	1.300556944033638	1.300556944032402	-0.1315754510796466	-0.1745275320025007	0.4339213610987944	0.08950538560644383	0.0350604040940229	0.01020983105488161	0.08721301339902388	-0.271931618848208	0.01403998525098257	-0.1333576044062242	-3.460180448352278e-05	-0.2930656726346634	-0.2930656726346855	-0.02102022249809326	0.0006402986124633968	-0.0935277023116822	-0.04985767468544378	-0.1834643137996348	0.06138619186340648	-0.006425617823893453	-0.334682920649124	-0.08095794125834332	0.02455147442641296	0.1861454057960144	-63.53617259870975	-0.9028131483449924	1.366981390071796	13.16728780791135	-615.2457149704495	-64.19132117138946	-3.910380924237787	0.8669781801888212	0.01694287822159277	1.443271315811456	-4.546924502508952	0.3055964115299519	-2.193026312069744	-0.01621984785997691	-4.902972853620484	-4.902972853620634	-0.2935315526641925	0.05130598615806684	-1.822633518829259	-0.9157133193448422	-2.897748982233138e-08	-2.579046623380546e-08	2.376395868486834e-07	1.567578276169279e-08	-5.665384706825103e-08	4.684938665911078e-08	-4.22826379099988e-08
1.07	-0.2904782420378339	0.04073064509628952	0.6635789639656267	1.258726129530566	-0.4995442335954347	-0.02304334393724011	-0.2617958229027638	1.297381654988939	1.297381654988181	-0.1317977861470885	-0.1745174154999345	0.4328951498215741	0.08896265652576536	0.04359293292775872	0.01037518229649564	0.1015680204290274	-0.3170737396771997	0.01728158012579994	-0.1554174377974533	-6.665350119581447e-05	-0.3419750208953644	-0.3419750208953543	-0.02343448224795726	0.001423725094800679	-0.1117201666586983	-0.05864195731453914	-0.1829497909811135	0.06139552409271482	-0.006539615804956672	-0.3337629536148253	-0.08081202184657135	0.02466765126736339	0.1857341157513936	-63.44313394641532	-1.01213066356141	1.433036703617719	13.10090342367846	-614.6328932135305	-64.21243512699624	-4.015176349151464	0.8463091347378691	0.01643968383459282	1.428848795434168	-4.492163197450328	0.3370498198639442	-2.206214965449513	0.002236479833478874	-4.882338491039974	-4.882338491034806	-0.2135428189659786	0.09802467746655256	-1.818396668291605	-0.8528842404712582	-3.582001901773479e-08	-4.0608540621554e-08	2.748353518811323e-07	1.580407957019785e-08	-6.529977429629656e-08	4.169347927242051e-08	-4.952845519528328e-08
1.08	-0.2899996636589562	0.04083524185368684	0.6646659576654561	1.255330630189496	-0.4993546096007329	-0.02470677753322437	-0.2617968273109711	1.293717787925844	1.293717787925678	-0.132043897738508	-0.1744982319922287	0.4316868451457479	0.08833346491764157	0.05212221775240458	0.01054487100625872	0.1158123634124711	-0.3619881534804277	0.02066752677679887	-0.1772273957006996	-0.000141332781466091	-0.3907812763058739	-0.3907812763058308	-0.02577552731055652	0.002453699504905101	-0.1299463820318786	-0.06715018017483415	-0.1824352681629025	0.06140485632226322	-0.00665361378597796	-0.332842986580526	-0.08066610243467952	0.02478382810881369	0.1853228257063957	-63.35912785994289	-1.120471662470383	1.499627017527942	13.0679665786886	-614.1490245364653	-64.22375750952671	-4.13752128345978	0.8663293783707595	0.01781037185161013	1.42113850649939	-4.501383097356339	0.3344667667654774	-2.143051214474184	-0.02474536457131604	-4.88235428358184	-4.882354283581817	-0.2788886152115478	0.1006155717095166	-1.829383724061857	-0.8605013655859113	-4.198403674296556e-08	-5.284901822943664e-08	3.054086655900987e-07	1.683642359176068e-08	-7.305847841251058e-08	3.670332754435137e-08	-5.545305233475774e-08
